<svg id="visual" viewBox="0 0 960 220" width="960" height="220" xmlns="http://www.w3.org/2000/svg" xmlns:xlink="http://www.w3.org/1999/xlink" version="1.1"><path d="M0 158L22.8 151.2C45.7 144.3 91.3 130.7 137 133.2C182.7 135.7 228.3 154.3 274 158.8C319.7 163.3 365.3 153.7 411.2 143.3C457 133 503 122 548.8 118.2C594.7 114.3 640.3 117.7 686 120.2C731.7 122.7 777.3 124.3 823 123.7C868.7 123 914.3 120 937.2 118.5L960 117L960 0L937.2 0C914.3 0 868.7 0 823 0C777.3 0 731.7 0 686 0C640.3 0 594.7 0 548.8 0C503 0 457 0 411.2 0C365.3 0 319.7 0 274 0C228.3 0 182.7 0 137 0C91.3 0 45.7 0 22.8 0L0 0Z" fill="#fa7268"></path><path d="M0 88L22.8 94C45.7 100 91.3 112 137 115.7C182.7 119.3 228.3 114.7 274 116.7C319.7 118.7 365.3 127.3 411.2 126.5C457 125.7 503 115.3 548.8 112.3C594.7 109.3 640.3 113.7 686 116.7C731.7 119.7 777.3 121.3 823 117.5C868.7 113.7 914.3 104.3 937.2 99.7L960 95L960 0L937.2 0C914.3 0 868.7 0 823 0C777.3 0 731.7 0 686 0C640.3 0 594.7 0 548.8 0C503 0 457 0 411.2 0C365.3 0 319.7 0 274 0C228.3 0 182.7 0 137 0C91.3 0 45.7 0 22.8 0L0 0Z" fill="#ef5f67"></path><path d="M0 64L22.8 64.7C45.7 65.3 91.3 66.7 137 67.7C182.7 68.7 228.3 69.3 274 74.2C319.7 79 365.3 88 411.2 89.2C457 90.3 503 83.7 548.8 86C594.7 88.3 640.3 99.7 686 100.5C731.7 101.3 777.3 91.7 823 84.8C868.7 78 914.3 74 937.2 72L960 70L960 0L937.2 0C914.3 0 868.7 0 823 0C777.3 0 731.7 0 686 0C640.3 0 594.7 0 548.8 0C503 0 457 0 411.2 0C365.3 0 319.7 0 274 0C228.3 0 182.7 0 137 0C91.3 0 45.7 0 22.8 0L0 0Z" fill="#e34c67"></path><path d="M0 71L22.8 72.3C45.7 73.7 91.3 76.3 137 73.3C182.7 70.3 228.3 61.7 274 60.3C319.7 59 365.3 65 411.2 64C457 63 503 55 548.8 54.2C594.7 53.3 640.3 59.7 686 61.7C731.7 63.7 777.3 61.3 823 61C868.7 60.7 914.3 62.3 937.2 63.2L960 64L960 0L937.2 0C914.3 0 868.7 0 823 0C777.3 0 731.7 0 686 0C640.3 0 594.7 0 548.8 0C503 0 457 0 411.2 0C365.3 0 319.7 0 274 0C228.3 0 182.7 0 137 0C91.3 0 45.7 0 22.8 0L0 0Z" fill="#d53867"></path><path d="M0 21L22.8 21.8C45.7 22.7 91.3 24.3 137 26.8C182.7 29.3 228.3 32.7 274 34.7C319.7 36.7 365.3 37.3 411.2 38.8C457 40.3 503 42.7 548.8 43.8C594.7 45 640.3 45 686 44.8C731.7 44.7 777.3 44.3 823 40.5C868.7 36.7 914.3 29.3 937.2 25.7L960 22L960 0L937.2 0C914.3 0 868.7 0 823 0C777.3 0 731.7 0 686 0C640.3 0 594.7 0 548.8 0C503 0 457 0 411.2 0C365.3 0 319.7 0 274 0C228.3 0 182.7 0 137 0C91.3 0 45.7 0 22.8 0L0 0Z" fill="#c62368"></path></svg>