<svg id="visual" viewBox="0 0 960 200" width="960" height="200" xmlns="http://www.w3.org/2000/svg" xmlns:xlink="http://www.w3.org/1999/xlink" version="1.1"><path d="M0 112L22.8 110.5C45.7 109 91.3 106 137 112C182.7 118 228.3 133 274 138.7C319.7 144.3 365.3 140.7 411.2 135.8C457 131 503 125 548.8 126.5C594.7 128 640.3 137 686 139C731.7 141 777.3 136 823 130.8C868.7 125.7 914.3 120.3 937.2 117.7L960 115L960 0L937.2 0C914.3 0 868.7 0 823 0C777.3 0 731.7 0 686 0C640.3 0 594.7 0 548.8 0C503 0 457 0 411.2 0C365.3 0 319.7 0 274 0C228.3 0 182.7 0 137 0C91.3 0 45.7 0 22.8 0L0 0Z" fill="#d011ed"></path><path d="M0 91L22.8 89.8C45.7 88.7 91.3 86.3 137 93.5C182.7 100.7 228.3 117.3 274 119.2C319.7 121 365.3 108 411.2 103.2C457 98.3 503 101.7 548.8 99.8C594.7 98 640.3 91 686 88.8C731.7 86.7 777.3 89.3 823 89.3C868.7 89.3 914.3 86.7 937.2 85.3L960 84L960 0L937.2 0C914.3 0 868.7 0 823 0C777.3 0 731.7 0 686 0C640.3 0 594.7 0 548.8 0C503 0 457 0 411.2 0C365.3 0 319.7 0 274 0C228.3 0 182.7 0 137 0C91.3 0 45.7 0 22.8 0L0 0Z" fill="#b413e9"></path><path d="M0 73L22.8 77.5C45.7 82 91.3 91 137 94.7C182.7 98.3 228.3 96.7 274 92.2C319.7 87.7 365.3 80.3 411.2 79.5C457 78.7 503 84.3 548.8 90C594.7 95.7 640.3 101.3 686 103.5C731.7 105.7 777.3 104.3 823 103.5C868.7 102.7 914.3 102.3 937.2 102.2L960 102L960 0L937.2 0C914.3 0 868.7 0 823 0C777.3 0 731.7 0 686 0C640.3 0 594.7 0 548.8 0C503 0 457 0 411.2 0C365.3 0 319.7 0 274 0C228.3 0 182.7 0 137 0C91.3 0 45.7 0 22.8 0L0 0Z" fill="#9616e5"></path><path d="M0 39L22.8 38.8C45.7 38.7 91.3 38.3 137 39C182.7 39.7 228.3 41.3 274 46.8C319.7 52.3 365.3 61.7 411.2 64.5C457 67.3 503 63.7 548.8 60.5C594.7 57.3 640.3 54.7 686 55.8C731.7 57 777.3 62 823 61.2C868.7 60.3 914.3 53.7 937.2 50.3L960 47L960 0L937.2 0C914.3 0 868.7 0 823 0C777.3 0 731.7 0 686 0C640.3 0 594.7 0 548.8 0C503 0 457 0 411.2 0C365.3 0 319.7 0 274 0C228.3 0 182.7 0 137 0C91.3 0 45.7 0 22.8 0L0 0Z" fill="#751ae0"></path><path d="M0 34L22.8 35.2C45.7 36.3 91.3 38.7 137 39.3C182.7 40 228.3 39 274 37.5C319.7 36 365.3 34 411.2 34.5C457 35 503 38 548.8 39C594.7 40 640.3 39 686 37.5C731.7 36 777.3 34 823 31C868.7 28 914.3 24 937.2 22L960 20L960 0L937.2 0C914.3 0 868.7 0 823 0C777.3 0 731.7 0 686 0C640.3 0 594.7 0 548.8 0C503 0 457 0 411.2 0C365.3 0 319.7 0 274 0C228.3 0 182.7 0 137 0C91.3 0 45.7 0 22.8 0L0 0Z" fill="#4c1ddb"></path></svg>